<svg xmlns="http://www.w3.org/2000/svg" viewBox="0 0 214 214" width="100%" height="100%" fill="transparent">
  <rect width="214" height="214" fill="url(#a)" rx="50"/>
  <path fill="#fff" d="m72.111 98.907.282.066c3.035.744 5.581 2.139 7.86 4.264l.168.154c1.503 1.387 2.683 3.033 3.624 4.844l.113.216c1.335 2.594 1.918 5.3 1.916 8.209v.388a12 12 0 0 1-.192 2.161c-.313 2.125.13 4.287 1.363 6.066q.285.372.593.727l.203.24q.463.536.967 1.037l.548.546.214.214.23.23.786.785a9943 9943 0 0 0 6.983 6.966l.181.181q1.45 1.445 2.898 2.892l2.981 2.974 1.835 1.831a933 933 0 0 0 1.985 1.981c1.694 1.697 3.288 3.192 5.73 3.665l.305.063c.49.065.972.065 1.465.062l.291.002c.501-.001.977-.031 1.474-.1 4.588-.468 9.275.706 12.895 3.594.531.437 1.032.9 1.527 1.377l.291.272c2.973 2.85 4.941 7.157 5.073 11.272q.005.547.003 1.094l.002.37c-.002 1.281-.094 2.463-.448 3.697l-.087.321c-.143.514-.282.967-.596 1.408-.513.004-.767-.166-1.126-.501a53 53 0 0 1-.53-.533l-.294-.294q-.315-.315-.629-.633-.496-.502-.995-1a1884.398 1884.398 0 0 0-4.397-4.419l-.988-.994-.761-.766-.274-.277c-.803-.804-1.52-1.371-2.707-1.418-1.118.018-2.145.393-3.202.725a36 36 0 0 1-1.213.341l-.421.114q-.404.11-.807.214c-1.144.313-2.013.723-2.624 1.778a13 13 0 0 0-.433 1.183l-.116.34-.358 1.073-.241.718q-.273.81-.542 1.621a54 54 0 0 1-.284.832l-.081.232c-.11.375-.121.717-.127 1.108l-.015.438c.1 1.07 1.163 1.907 1.882 2.61l.33.325q.43.425.862.849.69.677 1.378 1.358l.477.468c.496.489.972.983 1.426 1.51.357.402.743.774 1.126 1.15l.534.527.832.819.809.798.25.245c.461.456.852.913 1.213 1.452-.337.285-.607.396-1.04.483l-.348.071-.361.07-.356.073c-4.725.949-9.577-.169-13.579-2.8-3.947-2.69-6.6-6.791-7.582-11.446-.276-1.468-.179-2.976-.156-4.462q.013-.883.021-1.767l.009-.4c.024-2.872-1.313-5.07-3.272-7.063q-.7-.704-1.406-1.404l-.634-.633-1.54-1.534-1.252-1.247-.18-.18-.363-.362-3.4-3.386-3.105-3.094a4171 4171 0 0 0-4.986-4.968l-1.525-1.518-.776-.774q-.421-.42-.845-.84l-.243-.245c-1.542-1.519-3.533-2.557-5.731-2.551l-.807.01-.662.005q-.81.006-1.618.018c-4.076.058-7.965-.756-11.294-3.248l-.252-.181c-3.258-2.414-5.43-5.697-6.538-9.564l-.097-.334c-.406-1.483-.524-2.979-.523-4.51l-.001-.246c.002-1.991.332-3.849 1.053-5.709.358.157.597.345.873.62l.252.251.274.275.291.289.788.787.825.824 1.565 1.562 1.775 1.772 3.035 3.031.487.486.384.386c.573.575 1.066.848 1.895.854.703-.011 1.316-.154 1.986-.359l.355-.104.759-.225q.531-.159 1.066-.312.45-.128.898-.26l.641-.184c1.329-.393 2.234-.683 2.931-1.92.16-.354.289-.715.412-1.083l.105-.305q.165-.478.326-.958l.219-.634q.26-.758.517-1.518.132-.388.267-.775l.153-.443.131-.377c.19-.658.265-1.306-.017-1.947-.443-.734-.967-1.317-1.58-1.914l-.307-.305q-.327-.325-.656-.648-.52-.51-1.038-1.025-.818-.81-1.639-1.619-1.472-1.45-2.94-2.906a473 473 0 0 0-1.52-1.499l-.593-.584-.262-.26-.23-.226c-.16-.185-.16-.185-.16-.407a15 15 0 0 1 2.204-.687l.239-.056c2.267-.514 5-.468 7.261.076m10.293 32.978c-.609.785-.666 1.34-.59 2.335.33 1.577 2.346 3.015 3.442 4.101l.88.873 1.862 1.848 2.168 2.153.865.857.53.526.241.24c.378.375.725.754 1.054 1.173l.258.201c.249.202.426.381.63.622.544.625 1.13 1.209 1.716 1.795l.18.182.947.947q.487.487.97.976.375.378.754.754l.357.36c1.01 1.041 1.01 1.041 2.344 1.551.838-.009 1.455-.102 2.078-.686.483-.53.729-1.012.732-1.74l.005-.297c-.121-1.005-.608-1.533-1.312-2.217l-.289-.288-.786-.774q-.414-.406-.825-.816-.78-.772-1.564-1.543-1.145-1.129-2.288-2.26l-.17-.169-.337-.332-.98-.967-.756-.746-.27-.266c-.467-.461-.913-.93-1.337-1.43-.184-.213-.184-.213-.503-.464a5 5 0 0 1-.667-.66c-.537-.617-1.117-1.19-1.696-1.767l-.36-.359-.75-.747-.955-.955-.74-.739-.353-.353a127 127 0 0 0-.776-.773c-.773-.695-1.358-.852-2.376-.839-.605.05-.928.228-1.333.693"/>
  <path fill="#fff" d="M78.25 45.232h.416q.558 0 1.114.005.585.003 1.17.002 1.105.002 2.21.007 1.381.005 2.764.008 2.463.006 4.925.016v7.996l-2.775.008-1.962.01q-1.272.009-2.542.012-1.114.002-2.228.01-.425.003-.85.003-.596.001-1.19.007l-.355-.002c-.815.012-1.4.157-2.038.693l-.148.182-.152.179c-.535.834-.53 1.552-.526 2.525l-.002.466q-.003.639-.001 1.278l-.003 1.38q-.003 1.194-.003 2.389-.001 1.728-.005 3.457-.007 2.806-.01 5.612-.002 2.723-.006 5.446v.339l-.008 3.987-.003 1.287a3638 3638 0 0 0-.008 6.129l-.003 2.611v.665c-.005 1.359-.005 1.359-.128 1.86-.334.221-.334.221-.667.186l-.42-.09-.489-.097q-.412-.084-.826-.17c-1.851-.376-3.626-.46-5.517-.496v-5.997c-1.706.067-1.706.067-3.394.25l-.289.043c-1.727.271-3.408.683-5.016 1.373l-.252.108c-2.716 1.179-5.32 2.938-7.22 5.222l-.225.253c-2.25 2.606-4.06 6.214-4.452 9.65-.134 1.174-.565 2.037-1.14 3.061-1.757 3.151-2.462 6.83-2.465 10.398v.252c0 1.373.097 2.689.362 4.037l.083.48c.76 4.131 2.976 7.919 5.828 10.958-.143.43-.33.521-.697.785l-.561.407q-.366.271-.725.551-.864.672-1.753 1.311l-.194.142c-.62.442-1.098.661-1.87.58-.503-.294-.913-.655-1.323-1.065l-.186-.184q-.303-.3-.604-.6l-.422-.419-.882-.877q-.563-.562-1.13-1.121l-.87-.866-.417-.413q-.291-.289-.58-.579l-.174-.17c-.437-.441-.74-.864-.813-1.488.046-.369.138-.552.347-.859l.217-.321.402-.572q.413-.587.83-1.17c.502-.704.991-1.417 1.478-2.132q.308-.453.63-.896l.25-.35.215-.294c.177-.375.139-.554.021-.949q-.18-.36-.383-.708c-1.185-2.123-2.046-4.486-2.628-6.843l-.191-.026-2.01-.282-.744-.104c-1.298-.18-2.594-.367-3.886-.586l-.303-.048c-.677-.119-1.197-.291-1.637-.853-.2-.425-.2-.812-.197-1.271l-.002-.286q-.003-.467-.001-.933l-.002-.65v-1.362q.002-.873-.004-1.744-.003-.671-.001-1.342 0-.322-.002-.643-.002-.45.001-.899l-.003-.267c.008-.575.109-.918.505-1.363.468-.297.908-.399 1.452-.484l.228-.036q.369-.058.738-.113l.515-.081q.675-.106 1.35-.209.69-.106 1.38-.214 1.35-.211 2.702-.418l.072-.24c.867-2.9.867-2.9 1.483-4.216l.17-.375c.365-.79.758-1.56 1.23-2.294.19-.306.28-.507.28-.87-.138-.413-.35-.744-.6-1.097q-.075-.107-.15-.219l-.318-.456-.455-.657q-.3-.437-.603-.873l-1.095-1.585q-.09-.128-.18-.261a82 82 0 0 1-.503-.738l-.164-.244-.153-.234-.136-.206c-.2-.39-.176-.66-.104-1.093.245-.266.245-.266.557-.555l.292-.29 5.731-5.707.301-.31c.257-.245.257-.245.503-.315l.242.008h.24c.768.174 1.415.758 2.032 1.221a63 63 0 0 0 2.504 1.768c.412.276.817.556 1.211.856l.212.16q.194.147.381.298c.312.236.495.312.89.316.502-.142.916-.36 1.369-.615 5.039-2.72 5.039-2.72 7.068-2.72l.04-.41c.077-.685.196-1.362.315-2.04l.376-2.163.29-1.677c.304-1.704.304-1.704.826-2.199.382-.243.573-.298 1.022-.297h.332l.359.002h.366l1.163.004.787.001q.966.002 1.931.006v-.228q-.011-2.75-.017-5.5-.003-1.331-.008-2.661-.004-1.16-.006-2.321 0-.614-.004-1.227c-.02-3.63.524-6.816 3.158-9.495 1.952-1.859 4.433-2.951 7.143-2.926M155.204 45.27c3.379-.009 3.379-.009 5.053-.01l2.712-.006a904 904 0 0 1 3.283-.007q.636-.003 1.272-.002l.375-.002c2.77.007 5.209 1.203 7.179 3.102 1.688 1.692 2.892 4.195 2.893 6.59l.001.231-.001.77.001.56v1.542l.001 1.677.002 3.328.001 3.986a14743 14743 0 0 1 .004 12.143v2.047l.003 15.352v2.205l.001 1.723v.493q0 7.916.004 15.833.004 5.688.004 11.377v.236l.001 5.138v2.296l.003 7.285q.002 3.771.001 7.543-.001 2.174.002 4.348.002 1.453-.001 2.905l.001 1.655a379 379 0 0 1 .001 2.048c.007 1.479-.086 3.003-.74 4.358l-.103.222c-1.211 2.546-3.245 4.53-5.892 5.553l-.208.081c-1.505.55-3.086.47-4.663.464l-.801.001q-.971 0-1.943-.003l-2.262-.002q-2.018 0-4.034-.004l-3.917-.005h-.244l-1.213-.001q-5.025-.003-10.049-.011l.051-.472.028-.266c.039-.307.098-.609.16-.913.209-1.031.253-2.029.239-3.079q-.005-.405-.005-.81l-.004-.526-.001-.238a12 12 0 0 0-.078-1.22l-.031-.269-.024-.202.4-.001q4.703-.009 9.407-.025l1.158-.003.233-.001 3.732-.009q1.915-.004 3.829-.011 1.076-.005 2.151-.005 1.012-.001 2.025-.007l.743-.001q.507 0 1.014-.004l.297.002c.75-.009 1.28-.142 1.863-.643.577-.67.711-1.162.711-2.031l.001-.227v-.756l.001-.549.001-1.516.001-1.645.003-3.269.003-3.913.006-9.459.001-3.132.007-16.406v-1.442l.001-2.413v-.484q.002-7.773.009-15.545.006-5.585.008-11.168v-.232l.001-5.042v-2.252q0-3.687.006-7.374.005-3.593.002-7.184 0-2.134.004-4.27.002-1.425 0-2.85-.002-.813.001-1.626.003-.738-.001-1.478 0-.266.002-.532c.009-1.066-.042-2.01-.794-2.839-.483-.431-.973-.622-1.616-.626l-.329-.004h-.357l-.38-.004q-.62-.005-1.24-.007l-.86-.007-2.033-.013q-1.27-.006-2.541-.017-2.266-.015-4.532-.028zM122.095 28.004q.43.007.861.007l.811.008c.424.009.736.038 1.1.261q.291.061.585.104l.358.057q.414.064.829.122c2.492.377 4.555 2.077 6.035 4.048 1.316 1.841 2.263 3.915 2.238 6.205l-.002.263-.005.639.183-.001q2.217-.015 4.433-.022a567 567 0 0 0 2.143-.01q1.035-.007 2.07-.01.395 0 .789-.004.553-.004 1.106-.004l.328-.004c1.051.006 1.815.361 2.578 1.07.895.925 1.014 1.774 1.013 3.032l.002.42.003 1.14.001.714q.003 1.248.003 2.495 0 1.159.006 2.318.004.997.004 1.996 0 .595.003 1.189.002.664 0 1.329l.004.393c-.008 1.019-.194 2.041-.902 2.823l-.195.228c-1.081.83-2.176.865-3.482.857l-.592.003q-.81.002-1.621 0-.875-.002-1.75.003-1.713.003-3.427.001h-3.186l-.806.001q-3.778.003-7.555-.001-3.24-.003-6.479.002-3.764.006-7.528.005h-1.202q-1.39-.001-2.781.002-1.696.003-3.391-.001-.865-.003-1.729 0-.793.004-1.585-.002-.285 0-.571.002c-1.264.01-2.314-.126-3.303-.994-.843-.83-1.112-1.864-1.124-3.021l.003-.385-.002-.415a134 134 0 0 1 0-1.116l-.001-1.175q0-.986.002-1.972.004-1.135 0-2.272a400 400 0 0 1-.002-1.959v-1.166q-.002-.651.003-1.301l-.003-.385c.012-1.138.304-2.078 1.127-2.892 1.28-1.151 2.726-.999 4.352-.976l.797.003q1.042.004 2.085.016 1.068.01 2.134.013 2.088.012 4.177.033l-.003-.347-.002-.454-.002-.228c-.008-2.822 1.642-5.543 3.534-7.522.905-.877 1.923-1.573 3.046-2.144l.197-.102c.231-.112.465-.21.702-.308l.352-.147c1.089-.412 2.075-.485 3.234-.462m-3.164 8.435c-.894 1.26-1.216 2.526-1.091 4.056.301 1.432 1.083 2.666 2.273 3.523 1.257.798 2.63 1.036 4.105.739 1.614-.498 2.649-1.408 3.47-2.85.588-1.133.617-2.694.295-3.924-.502-1.337-1.661-2.473-2.949-3.068-2.218-.901-4.557-.324-6.103 1.524M70.068 140.506c1.123-.162 1.91.036 2.846.669 1.69 1.267 3.157 2.788 3.48 4.924.291 2.312.162 4.679.058 7-.06 1.345-.085 2.691-.112 4.037l-.012.6-.006.295q-.018.863-.054 1.724-.02.534-.038 1.068-.009.246-.022.492c-.045.869-.067 1.554.505 2.251.673.668 1.22.689 2.148.699l.472-.002.501.004q.678.004 1.356.003.71.001 1.42.006 1.343.007 2.685.008 1.529.003 3.058.011 3.144.013 6.288.019l-.048.411-.062.541-.031.27a18 18 0 0 0-.11 2.206l.002.369a29 29 0 0 0 .25 3.31l.11.888q-3.487.017-6.974.023-1.62.004-3.24.011-1.412.006-2.825.008-.747.001-1.494.005-.705.004-1.41.004l-.514.002c-1.495.015-2.975-.186-4.309-.906l-.22-.116c-2.762-1.475-4.56-3.771-5.502-6.729-.245-.82-.296-1.624-.293-2.473v-1.856l.002-1.787.001-1.87.002-3.538.003-4.029.005-8.286.357-.045.229-.029.495-.061q.502-.06 1.003-.131"/>
  <path fill="#fff" d="M116.502 79.029h39.594v6.219h-39.594zM116.502 106.791h39.483v6.108h-39.483zM92.163 72.684l.407-.002h.448l.471-.002 1.28-.003.8-.001 2.505-.003q1.445 0 2.89-.006 1.117-.003 2.234-.004.668 0 1.334-.002.628-.003 1.256-.002l.678-.003c.902.005 1.507.042 2.207.647.402.468.495.773.496 1.389l.003.41-.001.448.002.472a549 549 0 0 1 .002 2.356l.001 2.53q-.002 1.305.003 2.609.002 1.12.002 2.24 0 .669.002 1.338.002.63-.001 1.258l.001.461q.001.316-.001.631v.357c-.085.676-.43 1.113-.934 1.553-.376.236-.677.25-1.118.252l-.417.003h-.456l-.482.002a316 316 0 0 1-2.124.004q-1.426.003-2.851.002-1.327 0-2.656.006-1.14.004-2.282.004-.681 0-1.362.003-.64.003-1.281 0-.236 0-.47.002c-1.465.012-1.465.012-2.012-.5-.464-.513-.571-.862-.574-1.544l-.002-.414-.001-.456-.002-.48q-.004-.787-.005-1.574l-.001-.543-.005-2.547q-.002-1.47-.009-2.94-.005-1.137-.005-2.273 0-.679-.004-1.358-.004-.639-.002-1.277 0-.234-.002-.468c-.014-1.461-.014-1.461.5-2.005.511-.458.86-.569 1.538-.57m1.363 3.458v11.993h12.157V76.142zM138.551 127.863l.376-.001.406.003h.433q.584 0 1.168.003l1.224.001 2.314.005q1.317.004 2.635.005 2.71.003 5.42.011a2.9 2.9 0 0 1-.518.78l-.173.184-.18.188-.351.371-.173.183c-.162.177-.312.359-.462.545-.228.263-.374.405-.68.553-.369.153-.369.153-.474.416h-.235q-1.123-.004-2.247-.005l-2.893-.007c-1.631 0-3.253.071-4.886.123v15.436h14.834v-5.663a50 50 0 0 1 1.754-2.049c.504-.564 1.002-1.144 1.439-1.762l.153-.187h.223q.019 2.12.029 4.243.003.984.013 1.97.008.952.011 1.903.001.362.006.724.005.51.004 1.018l.006.3c-.007.888-.329 1.578-.885 2.265-.676.532-1.355.805-2.216.808l-.438.002-.482.001-.506.003-1.664.004-.573.002-2.694.004q-1.553.002-3.107.009-1.202.005-2.402.005-.718 0-1.435.004-.675.004-1.35.002l-.494.002c-1.102.01-1.929-.093-2.827-.748-.624-.637-.87-1.359-.873-2.239l-.001-.22-.001-.731-.002-.524-.002-1.424-.002-.891-.008-6.001q-.004-1.242-.004-2.486 0-.742-.003-1.483-.003-.699-.001-1.398l-.001-.511c-.013-2.039-.013-2.039.641-2.81l.292-.243.272-.243c.499-.351.986-.451 1.59-.45M92.876 100.515l.485-.003q.656-.002 1.313.001.689.001 1.376-.001 1.155-.001 2.311.002 1.335.004 2.67-.001a585 585 0 0 1 2.294-.001h1.37q.643-.003 1.287.002l.472-.001c.961-.005 1.503.006 2.201.681.404.505.499.827.503 1.463l.003.405.001.445.003.469.006 1.539.002.53.006 2.207q.002 1.58.011 3.16.007 1.112.007 2.223 0 .663.006 1.327.005.624.003 1.249 0 .337.005.674c-.005.806-.047 1.414-.628 2.01-.602.585-1.222.62-2.037.624l-.452-.006-.481.001q-.651 0-1.301-.007-.681-.005-1.362-.005-1.289-.003-2.576-.012-1.467-.008-2.934-.012-3.016-.008-6.033-.028l.11-1.049.03-.296c.262-2.541.21-5.518-.78-7.913-.676-1.672-.697-3.274-.667-5.056q.005-.457.003-.913 0-.55.006-1.1v-.409c.024-1.185.024-1.185.517-1.698.649-.606 1.404-.507 2.25-.501m.65 3.389v12.104h12.157v-12.104zM104.456 134.664h24.872v6.108c-2.354.137-4.704.246-7.061.31a92 92 0 0 0-3.281.142c-7.794.487-7.794.487-10.464-1.81a25.3 25.3 0 0 1-4.066-4.639z"/>
  <path fill="#fff" d="M159.665 124.003c.645.441 1.186.946 1.732 1.502.372.371.765.714 1.168 1.052-.193.47-.526.817-.857 1.194l-.184.212q-.547.626-1.098 1.249c-.317.363-.628.732-.94 1.099q-.573.676-1.152 1.348l-.168.195-.678.786q-1.203 1.395-2.396 2.801a363 363 0 0 1-3.48 4.048q-.67.772-1.328 1.553c-.387.457-.788.9-1.193 1.342-.352.396-.681.81-1.01 1.225-.244.278-.5.495-.796.716l-.565-.555-.157-.154a16 16 0 0 1-.867-.929c-.483-.555-1.008-1.067-1.534-1.582a29 29 0 0 1-1.716-1.795c-.285-.323-.59-.624-.898-.926l-.183-.18-.437-.431c.472-.67 1-1.242 1.589-1.811l.476-.464.21-.203c.201-.199.201-.199.401-.52h.223c.158.159.158.159.342.382.3.352.61.683.941 1.006.384.377.742.767 1.092 1.174.308.346.639.669.972.992.835-.806 1.583-1.686 2.314-2.586.323-.388.663-.759 1.004-1.131.257-.289.502-.585.746-.885a25 25 0 0 1 1.066-1.228c.449-.486.87-.987 1.287-1.5.499-.605 1.019-1.192 1.536-1.783l.92-1.055.182-.209q.686-.79 1.368-1.584.653-.757 1.308-1.511l.192-.22c.443-.509.443-.509.568-.634"/>
  <defs>
    <linearGradient id="a" x1="0" x2="225.538" y1="213.988" y2="12.957" gradientUnits="userSpaceOnUse">
      <stop stop-color="#4331C4"/>
      <stop offset=".49" stop-color="#2C80A9" stop-opacity=".97"/>
      <stop offset="1" stop-color="#17D1B6"/>
    </linearGradient>
  </defs>
</svg>
